<svg width="48" height="48" viewBox="0 0 48 48" fill="none" xmlns="http://www.w3.org/2000/svg">
<path d="M38.9407 29.2901C38.9539 29.2256 39.0461 29.2256 39.0593 29.2901C39.7438 32.6391 42.361 35.2562 45.7099 35.9408C45.7745 35.9539 45.7745 36.0461 45.7099 36.0593C42.361 36.7438 39.7438 39.361 39.0593 42.71C39.0461 42.7745 38.9539 42.7745 38.9407 42.71C38.2562 39.361 35.639 36.7438 32.2901 36.0593C32.2255 36.0461 32.2255 35.9539 32.2901 35.9408C35.639 35.2562 38.2562 32.6391 38.9407 29.2901Z" stroke="#006FFF" stroke-width="3"/>
<path d="M31.4375 20.7521C31.5626 20.1399 32.4374 20.1399 32.5625 20.7521C32.8389 22.1043 33.8956 23.1611 35.2478 23.4374C35.8601 23.5626 35.8601 24.4374 35.2478 24.5625C33.8956 24.8389 32.8389 25.8956 32.5625 27.2478C32.4374 27.86 31.5626 27.86 31.4375 27.2478C31.1611 25.8956 30.1044 24.8389 28.7522 24.5625C28.1399 24.4374 28.1399 23.5626 28.7522 23.4374C30.1044 23.1611 31.1611 22.1043 31.4375 20.7521Z" fill="#006FFF"/>
<path d="M23.3271 6.15653L22.6985 4.79459L23.3271 6.15653ZM25.318 5.23762L25.9466 6.59956V6.59956L25.318 5.23762ZM30.682 5.23762L31.3106 3.87568L31.3106 3.87568L30.682 5.23762ZM32.6729 6.15653L32.0443 7.51847L32.6729 6.15653ZM25.5 45.4998C26.3284 45.4998 27 44.8282 27 43.9998C27 43.1714 26.3284 42.4998 25.5 42.4998V43.9998V45.4998ZM41.5 23.9998C41.5 24.8282 42.1716 25.4998 43 25.4998C43.8284 25.4998 44.5 24.8282 44.5 23.9998H43H41.5ZM27.3116 4.46496L27.5697 5.94258L27.5697 5.94258L27.3116 4.46496ZM28.6884 4.46496L28.4303 5.94258L28.6884 4.46496ZM33.3655 6.45752L32.8646 7.87145L32.8646 7.87145L33.3655 6.45752ZM36.3976 6.33007L36.8968 7.74455L36.8968 7.74455L36.3976 6.33007ZM35.6801 6.56536L36.0472 8.01973L36.0472 8.01973L35.6801 6.56536ZM38.5546 5.67825L38.3876 4.18758V4.18758L38.5546 5.67825ZM42.8967 8.75036L41.4355 9.08899V9.089L42.8967 8.75036ZM19.6024 6.33007L20.1017 4.91558L20.1017 4.91558L19.6024 6.33007ZM20.3199 6.56536L19.9528 8.01973L19.9528 8.01973L20.3199 6.56536ZM22.6345 6.45752L22.1337 5.04359L22.1337 5.04359L22.6345 6.45752ZM13.1033 8.75036L14.5645 9.08899V9.08899L13.1033 8.75036ZM17.4454 5.67825L17.2784 7.16893L17.4454 5.67825ZM21 13.4998C20.1716 13.4998 19.5 14.1714 19.5 14.9998C19.5 15.8282 20.1716 16.4998 21 16.4998V14.9998V13.4998ZM35 16.4998C35.8284 16.4998 36.5 15.8282 36.5 14.9998C36.5 14.1714 35.8284 13.4998 35 13.4998V14.9998V16.4998ZM21 22.4998C20.1716 22.4998 19.5 23.1714 19.5 23.9998C19.5 24.8282 20.1716 25.4998 21 25.4998V23.9998V22.4998ZM24.5 25.4998C25.3284 25.4998 26 24.8282 26 23.9998C26 23.1714 25.3284 22.4998 24.5 22.4998V23.9998V25.4998ZM5.85891 24.7151L6.63065 23.4289L5.85891 24.7151ZM10.3183 25.0725L9.76125 23.6797L10.3183 25.0725ZM13 23.9998H14.5V11.0014H13H11.5V23.9998H13ZM23.3271 6.15653L23.9556 7.51847L25.9466 6.59956L25.318 5.23762L24.6894 3.87569L22.6985 4.79459L23.3271 6.15653ZM30.682 5.23762L30.0534 6.59956L32.0443 7.51847L32.6729 6.15653L33.3015 4.79459L31.3106 3.87568L30.682 5.23762ZM25.5 43.9998V42.4998H8V43.9998V45.4998H25.5V43.9998ZM43 11.0014H41.5V23.9998H43H44.5V11.0014H43ZM25.318 5.23762L25.9466 6.59956C27.0056 6.11082 27.2936 5.99083 27.5697 5.94258L27.3116 4.46496L27.0534 2.98734C26.3016 3.1187 25.6032 3.45394 24.6894 3.87569L25.318 5.23762ZM30.682 5.23762L31.3106 3.87568C30.3968 3.45395 29.6984 3.1187 28.9466 2.98734L28.6884 4.46496L28.4303 5.94258C28.7064 5.99083 28.9945 6.11083 30.0534 6.59956L30.682 5.23762ZM27.3116 4.46496L27.5697 5.94258C27.8544 5.89284 28.1456 5.89284 28.4303 5.94258L28.6884 4.46496L28.9466 2.98734C28.3203 2.87792 27.6797 2.87792 27.0534 2.98734L27.3116 4.46496ZM32.6729 6.15653L32.0443 7.51847C32.3654 7.66665 32.6109 7.78156 32.8646 7.87145L33.3655 6.45752L33.8663 5.04359C33.7729 5.01053 33.6724 4.96577 33.3015 4.79459L32.6729 6.15653ZM36.3976 6.33007L35.8983 4.91558C35.5131 5.05152 35.4089 5.08675 35.3129 5.11099L35.6801 6.56536L36.0472 8.01973C36.3083 7.95383 36.5634 7.86222 36.8968 7.74455L36.3976 6.33007ZM33.3655 6.45752L32.8646 7.87145C33.8876 8.23379 34.995 8.28538 36.0472 8.01973L35.6801 6.56536L35.3129 5.11099C34.8346 5.23174 34.3313 5.20829 33.8663 5.04359L33.3655 6.45752ZM36.3976 6.33007L36.8968 7.74455C38.1217 7.31224 38.4828 7.19568 38.7216 7.16893L38.5546 5.67825L38.3876 4.18758C37.7173 4.26268 36.9434 4.54671 35.8983 4.91558L36.3976 6.33007ZM43 11.0014H44.5C44.5 9.89309 44.5103 9.06884 44.358 8.41173L42.8967 8.75036L41.4355 9.089C41.4897 9.32309 41.5 9.70247 41.5 11.0014H43ZM38.5546 5.67825L38.7216 7.16893C39.9824 7.02767 41.1491 7.85311 41.4355 9.08899L42.8967 8.75036L44.358 8.41173C43.7279 5.69278 41.1613 3.87682 38.3876 4.18758L38.5546 5.67825ZM19.6024 6.33007L19.1032 7.74455C19.4367 7.86223 19.6917 7.95383 19.9528 8.01973L20.3199 6.56536L20.6871 5.11099C20.5911 5.08675 20.4869 5.05153 20.1017 4.91558L19.6024 6.33007ZM23.3271 6.15653L22.6985 4.79459C22.3276 4.96577 22.2271 5.01053 22.1337 5.04359L22.6345 6.45752L23.1354 7.87145C23.3891 7.78156 23.6346 7.66664 23.9556 7.51847L23.3271 6.15653ZM20.3199 6.56536L19.9528 8.01973C21.005 8.28538 22.1124 8.23379 23.1354 7.87145L22.6345 6.45752L22.1337 5.04359C21.6687 5.20829 21.1654 5.23174 20.6871 5.11099L20.3199 6.56536ZM13 11.0014H14.5C14.5 9.70247 14.5103 9.32309 14.5645 9.08899L13.1033 8.75036L11.642 8.41173C11.4897 9.06884 11.5 9.89309 11.5 11.0014H13ZM19.6024 6.33007L20.1017 4.91558C19.0566 4.54672 18.2827 4.26268 17.6124 4.18758L17.4454 5.67825L17.2784 7.16893C17.5172 7.19568 17.8783 7.31224 19.1032 7.74455L19.6024 6.33007ZM13.1033 8.75036L14.5645 9.08899C14.8509 7.85311 16.0176 7.02767 17.2784 7.16893L17.4454 5.67825L17.6124 4.18758C14.8387 3.87682 12.2721 5.69278 11.642 8.41173L13.1033 8.75036ZM21 14.9998V16.4998H35V14.9998V13.4998H21V14.9998ZM21 23.9998V25.4998H24.5V23.9998V22.4998H21V23.9998ZM13 23.9998H11.5V38.9998H13H14.5V23.9998H13ZM3 38.9998H4.5V26.3338H3H1.5V38.9998H3ZM10.3183 25.0725L10.8754 26.4652L13.5571 25.3925L13 23.9998L12.4429 22.6071L9.76125 23.6797L10.3183 25.0725ZM5.85891 24.7151L5.08716 26.0014C6.83811 27.0519 8.97953 27.2235 10.8754 26.4652L10.3183 25.0725L9.76125 23.6797C8.73585 24.0899 7.57766 23.9971 6.63065 23.4289L5.85891 24.7151ZM8 43.9998V42.4998C6.067 42.4998 4.5 40.9328 4.5 38.9998H3H1.5C1.5 42.5896 4.41015 45.4998 8 45.4998V43.9998ZM13 38.9998H11.5C11.5 40.9328 9.933 42.4998 8 42.4998V43.9998V45.4998C11.5899 45.4998 14.5 42.5896 14.5 38.9998H13ZM3 26.3338H4.5C4.5 26.0325 4.82875 25.8463 5.08716 26.0014L5.85891 24.7151L6.63065 23.4289C4.37267 22.0741 1.5 23.7006 1.5 26.3338H3Z" fill="#4C4B67"/>
</svg>
