<svg width="48" height="48" viewBox="0 0 48 48" fill="none" xmlns="http://www.w3.org/2000/svg">
<path d="M16.1646 20.0872C16.3504 19.178 17.6495 19.178 17.8354 20.0872C18.9755 25.6653 23.3347 30.0245 28.9128 31.1646C29.822 31.3504 29.822 32.6495 28.9128 32.8354C23.3347 33.9755 18.9755 38.3347 17.8354 43.9128C17.6495 44.822 16.3504 44.822 16.1646 43.9128C15.0245 38.3347 10.6653 33.9755 5.08719 32.8354C4.17797 32.6495 4.17797 31.3504 5.08719 31.1646C10.6653 30.0245 15.0245 25.6653 16.1646 20.0872Z" stroke="#4C4B67" stroke-width="3"/>
<path d="M37.9407 13.2901C37.9539 13.2256 38.0461 13.2256 38.0593 13.2901C38.7438 16.6391 41.361 19.2562 44.7099 19.9408C44.7744 19.9539 44.7744 20.0461 44.7099 20.0593C41.361 20.7438 38.7438 23.361 38.0593 26.71C38.0461 26.7745 37.9539 26.7745 37.9407 26.71C37.2562 23.361 34.639 20.7438 31.29 20.0593C31.2255 20.0461 31.2255 19.9539 31.29 19.9408C34.639 19.2562 37.2562 16.6391 37.9407 13.2901Z" stroke="#006FFF" stroke-width="3"/>
<path d="M23.0624 2.58707C23.271 1.56668 24.729 1.56668 24.9375 2.58708C25.3982 4.84073 27.1594 6.60193 29.413 7.06256C30.4334 7.27112 30.4334 8.72908 29.413 8.93764C27.1594 9.39827 25.3982 11.1595 24.9375 13.4131C24.729 14.4335 23.271 14.4335 23.0624 13.4131C22.6018 11.1595 20.8406 9.39827 18.587 8.93764C17.5666 8.72908 17.5666 7.27112 18.587 7.06256C20.8406 6.60193 22.6018 4.84073 23.0624 2.58707Z" fill="#006FFF"/>
</svg>
