<svg width="48" height="48" viewBox="0 0 48 48" fill="none" xmlns="http://www.w3.org/2000/svg">
<path d="M37.9407 3.29009C37.9539 3.22557 38.0461 3.22557 38.0593 3.29009C38.7438 6.63906 41.361 9.25625 44.7099 9.94075C44.7744 9.95394 44.7744 10.0461 44.7099 10.0593C41.361 10.7438 38.7438 13.361 38.0593 16.71C38.0461 16.7745 37.9539 16.7745 37.9407 16.71C37.2562 13.361 34.639 10.7438 31.29 10.0593C31.2255 10.0461 31.2255 9.95394 31.29 9.94075C34.639 9.25625 37.2562 6.63906 37.9407 3.29009Z" stroke="#006FFF" stroke-width="3"/>
<path d="M24 11.5C24.8284 11.5 25.5 10.8284 25.5 10C25.5 9.17157 24.8284 8.5 24 8.5V10V11.5ZM39.5 24C39.5 23.1716 38.8284 22.5 38 22.5C37.1716 22.5 36.5 23.1716 36.5 24H38H39.5ZM10 15H8.5V33H10H11.5V15H10ZM15 38V39.5H33V38V36.5H15V38ZM15 10V11.5H24V10V8.5H15V10ZM38 33H39.5V24H38H36.5V33H38ZM10 15V13.5C8.067 13.5 6.5 11.933 6.5 10H5H3.5C3.5 13.5899 6.41015 16.5 10 16.5V15ZM15 10H13.5C13.5 11.933 11.933 13.5 10 13.5V15V16.5C13.5899 16.5 16.5 13.5899 16.5 10H15ZM10 5V6.5C11.933 6.5 13.5 8.067 13.5 10H15H16.5C16.5 6.41015 13.5899 3.5 10 3.5V5ZM10 5V3.5C6.41015 3.5 3.5 6.41015 3.5 10H5H6.5C6.5 8.067 8.067 6.5 10 6.5V5ZM10 43V41.5C8.067 41.5 6.5 39.933 6.5 38H5H3.5C3.5 41.5899 6.41015 44.5 10 44.5V43ZM15 38H13.5C13.5 39.933 11.933 41.5 10 41.5V43V44.5C13.5899 44.5 16.5 41.5899 16.5 38H15ZM10 33V34.5C11.933 34.5 13.5 36.067 13.5 38H15H16.5C16.5 34.4101 13.5899 31.5 10 31.5V33ZM10 33V31.5C6.41015 31.5 3.5 34.4101 3.5 38H5H6.5C6.5 36.067 8.067 34.5 10 34.5V33ZM38 43V41.5C36.067 41.5 34.5 39.933 34.5 38H33H31.5C31.5 41.5899 34.4101 44.5 38 44.5V43ZM43 38H41.5C41.5 39.933 39.933 41.5 38 41.5V43V44.5C41.5899 44.5 44.5 41.5899 44.5 38H43ZM38 33V34.5C39.933 34.5 41.5 36.067 41.5 38H43H44.5C44.5 34.4101 41.5899 31.5 38 31.5V33ZM38 33V31.5C34.4101 31.5 31.5 34.4101 31.5 38H33H34.5C34.5 36.067 36.067 34.5 38 34.5V33Z" fill="#4C4B67"/>
</svg>
