<svg width="48" height="48" viewBox="0 0 48 48" fill="none" xmlns="http://www.w3.org/2000/svg">
<path d="M32.9322 26.3317C32.9473 26.2579 33.0527 26.2579 33.0678 26.3317C33.85 30.1591 36.8411 33.1501 40.6685 33.9324C40.7422 33.9475 40.7422 34.0529 40.6685 34.0679C36.8411 34.8502 33.85 37.8413 33.0678 41.6687C33.0527 41.7424 32.9473 41.7424 32.9322 41.6687C32.15 37.8413 29.1589 34.8502 25.3315 34.0679C25.2577 34.0529 25.2577 33.9475 25.3315 33.9324C29.1589 33.1501 32.15 30.1591 32.9322 26.3317Z" stroke="#006FFF" stroke-width="3"/>
<path d="M41.4375 21.7521C41.5626 21.1399 42.4374 21.1399 42.5626 21.7521C42.8389 23.1043 43.8957 24.1611 45.2478 24.4374C45.8601 24.5626 45.8601 25.4374 45.2478 25.5625C43.8957 25.8389 42.8389 26.8956 42.5626 28.2478C42.4374 28.86 41.5626 28.86 41.4375 28.2478C41.1611 26.8956 40.1044 25.8389 38.7522 25.5625C38.14 25.4374 38.14 24.5626 38.7522 24.4374C40.1044 24.1611 41.1611 23.1043 41.4375 21.7521Z" fill="#006FFF"/>
<path d="M23 42C13.0589 42 5 38.4183 5 34C5 29.5817 13.0589 26 23 26M22 21C18.6863 21 16 18.3137 16 15V11C16 7.68629 18.6863 5 22 5C25.3137 5 28 7.68629 28 11V15C28 18.3137 25.3137 21 22 21Z" stroke="#4C4B67" stroke-width="3" stroke-linecap="round"/>
</svg>
