<svg width="48" height="48" viewBox="0 0 48 48" fill="none" xmlns="http://www.w3.org/2000/svg">
<path d="M13.5 24.5H36.5C36.5 24.5 36.3717 31.0385 37.5 35C37.5808 35.2836 37.6744 35.5766 37.7784 35.8756C38.8147 38.857 39.3328 40.3477 39.1258 41.2046C38.9243 42.0386 38.5543 42.5589 37.8327 43.0231C37.0913 43.5 35.729 43.5 33.0046 43.5H24.5M19.9152 9.48273C19.6917 6.80045 21.8084 4.5 24.5 4.5C27.1916 4.5 29.3083 6.80045 29.0848 9.48273L28.861 12.1678C28.6667 14.4999 30.507 16.5 32.8472 16.5H39.5C41.7091 16.5 43.5 18.2909 43.5 20.5C43.5 22.7091 41.7091 24.5 39.5 24.5H9.5C7.29086 24.5 5.5 22.7091 5.5 20.5C5.5 18.2909 7.29086 16.5 9.5 16.5H16.1528C18.493 16.5 20.3333 14.4999 20.139 12.1678L19.9152 9.48273Z" stroke="#4C4B67" stroke-width="3" stroke-linecap="round"/>
<path d="M10.9407 31.2901C10.9539 31.2256 11.0461 31.2256 11.0593 31.2901C11.7438 34.6391 14.361 37.2562 17.7099 37.9408C17.7745 37.9539 17.7745 38.0461 17.7099 38.0593C14.361 38.7438 11.7438 41.361 11.0593 44.71C11.0461 44.7745 10.9539 44.7745 10.9407 44.71C10.2562 41.361 7.63903 38.7438 4.29006 38.0593C4.22554 38.0461 4.22554 37.9539 4.29006 37.9408C7.63903 37.2562 10.2562 34.6391 10.9407 31.2901Z" stroke="#006FFF" stroke-width="3"/>
<path d="M21.4375 28.7521C21.5626 28.1399 22.4374 28.1399 22.5625 28.7521C22.8389 30.1043 23.8956 31.1611 25.2478 31.4374C25.8601 31.5626 25.8601 32.4374 25.2478 32.5625C23.8956 32.8389 22.8389 33.8956 22.5625 35.2478C22.4374 35.86 21.5626 35.86 21.4375 35.2478C21.1611 33.8956 20.1044 32.8389 18.7522 32.5625C18.1399 32.4374 18.1399 31.5626 18.7522 31.4374C20.1044 31.1611 21.1611 30.1043 21.4375 28.7521Z" fill="#006FFF"/>
</svg>
