<svg width="48" height="48" viewBox="0 0 48 48" fill="none" xmlns="http://www.w3.org/2000/svg">
<path d="M7.06244 7.58707C7.271 6.56668 8.72896 6.56668 8.93752 7.58708C9.39815 9.84073 11.1594 11.6019 13.413 12.0626C14.4334 12.2711 14.4334 13.7291 13.413 13.9376C11.1594 14.3983 9.39815 16.1595 8.93752 18.4131C8.72896 19.4335 7.271 19.4335 7.06244 18.4131C6.60181 16.1595 4.84061 14.3983 2.58695 13.9376C1.56656 13.7291 1.56656 12.2711 2.58695 12.0626C4.84061 11.6019 6.60181 9.84073 7.06244 7.58707Z" fill="#006FFF"/>
<path d="M21 44.5072C18.0703 43.868 15.1173 42.5988 12.383 40.6843C4.84279 35.4046 1.34573 26.8828 3.32288 19.9999M35.6426 18.9999C40.7745 25.2605 41 31.9999 39 34.9999C35 40.9999 27 36.9999 27 36.9999M16 10.2342C20.2456 9.85515 24.9482 10.9252 29.2406 13.4999M17.5876 32.8154C16.6112 32.845 15.8118 32.0456 15.8413 31.0692C15.9198 28.4787 16.984 26.0159 18.8165 24.1833L34.1716 8.82831C35.7337 7.26621 38.2663 7.26621 39.8284 8.82831C41.3905 10.3904 41.3905 12.9231 39.8284 14.4852L24.4734 29.8402C22.6408 31.6728 20.178 32.7369 17.5876 32.8154Z" stroke="#4C4B67" stroke-width="3" stroke-linecap="round"/>
</svg>
