<svg width="48" height="48" viewBox="0 0 48 48" fill="none" xmlns="http://www.w3.org/2000/svg">
<path d="M17.9407 10.2901C17.9539 10.2256 18.0461 10.2256 18.0593 10.2901C18.7438 13.6391 21.361 16.2562 24.7099 16.9408C24.7744 16.9539 24.7744 17.0461 24.7099 17.0593C21.361 17.7438 18.7438 20.361 18.0593 23.71C18.0461 23.7745 17.9539 23.7745 17.9407 23.71C17.2562 20.361 14.639 17.7438 11.29 17.0593C11.2255 17.0461 11.2255 16.9539 11.29 16.9408C14.639 16.2562 17.2562 13.6391 17.9407 10.2901Z" stroke="#006FFF" stroke-width="3"/>
<path d="M9.4375 4.75215C9.56264 4.13991 10.4374 4.13991 10.5626 4.75215C10.8389 6.10434 11.8957 7.16106 13.2478 7.43744C13.8601 7.56258 13.8601 8.43735 13.2478 8.56249C11.8957 8.83887 10.8389 9.89559 10.5626 11.2478C10.4374 11.86 9.56264 11.86 9.4375 11.2478C9.16112 9.89559 8.1044 8.83887 6.75221 8.56249C6.13997 8.43735 6.13997 7.56258 6.75221 7.43744C8.1044 7.16106 9.16112 6.10434 9.4375 4.75215Z" fill="#006FFF"/>
<path d="M18.5 41.9998C17.6716 41.9998 17 42.6713 17 43.4998C17 44.3282 17.6716 44.9998 18.5 44.9998V43.4998V41.9998ZM38 44.9998C38.8284 44.9998 39.5 44.3282 39.5 43.4998C39.5 42.6713 38.8284 41.9998 38 41.9998V43.4998V44.9998ZM36 10.9998L37.0607 9.93911L37.0607 9.93911L36 10.9998ZM37.7782 12.7779L36.7175 13.8386L36.7175 13.8386L37.7782 12.7779ZM13.6359 41.6219L12.5713 42.6786H12.5713L13.6359 41.6219ZM10.5892 38.5527L11.6537 37.4959L10.5892 38.5527ZM10.6152 24.3845L9.55457 23.3239H9.55457L10.6152 24.3845ZM24.4975 41.6288L25.5625 42.6851L24.4975 41.6288ZM19.9215 43.5219L19.929 42.0219H19.929L19.9215 43.5219ZM18.146 43.513L18.1385 45.013H18.1385L18.146 43.513ZM12.763 24.3581C13.3488 23.7723 13.3488 22.8225 12.763 22.2368C12.1772 21.651 11.2275 21.651 10.6417 22.2368L11.7024 23.2974L12.763 24.3581ZM8.15514 35.8754L6.90227 36.7002L6.90227 36.7002L8.15514 35.8754ZM8.17137 27.0528L6.92155 26.2234H6.92155L8.17137 27.0528ZM15.0699 42.9101L14.2809 44.1859L15.0699 42.9101ZM16.2221 43.3932L16.579 41.9363H16.5789L16.2221 43.3932ZM23.0431 42.9346L23.8286 44.2125H23.8286L23.0431 42.9346ZM21.8733 43.4185L21.5265 41.9592L21.8733 43.4185ZM41.298 16.7849L39.9751 17.492L41.298 16.7849ZM41.298 24.3273L42.6209 25.0344L42.6209 25.0344L41.298 24.3273ZM35.381 10.3936L34.3721 11.5036L35.381 10.3936ZM22.9394 9.93911C22.3536 10.5249 22.3536 11.4746 22.9394 12.0604C23.5251 12.6462 24.4749 12.6462 25.0607 12.0604L24 10.9998L22.9394 9.93911ZM24.619 10.3936L25.6279 11.5036V11.5036L24.619 10.3936ZM18.5 43.4998V44.9998H38V43.4998V41.9998H18.5V43.4998ZM36 10.9998L34.9393 12.0604L36.7175 13.8386L37.7782 12.7779L38.8388 11.7173L37.0607 9.93911L36 10.9998ZM13.6359 41.6219L14.7004 40.5651L11.6537 37.4959L10.5892 38.5527L9.52461 39.6094L12.5713 42.6786L13.6359 41.6219ZM37.7782 28.3343L36.7175 27.2736L25.1109 38.8802L26.1716 39.9409L27.2322 41.0016L38.8388 29.395L37.7782 28.3343ZM10.6152 24.3845L9.55457 25.4452L25.1109 41.0016L26.1716 39.9409L27.2322 38.8802L11.6759 23.3239L10.6152 24.3845ZM26.1716 39.9409L25.1066 38.8846L23.4325 40.5725L24.4975 41.6288L25.5625 42.6851L27.2366 40.9972L26.1716 39.9409ZM19.9215 43.5219L19.929 42.0219L18.1535 42.013L18.146 43.513L18.1385 45.013L19.914 45.0218L19.9215 43.5219ZM10.6152 24.3845L11.6759 25.4452L12.763 24.3581L11.7024 23.2974L10.6417 22.2368L9.55457 23.3239L10.6152 24.3845ZM10.5892 38.5527L11.6537 37.4959C10.2731 36.1051 9.74492 35.5624 9.408 35.0506L8.15514 35.8754L6.90227 36.7002C7.44588 37.526 8.24685 38.3222 9.52461 39.6094L10.5892 38.5527ZM10.6152 24.3845L9.55457 23.3239C8.27208 24.6064 7.46819 25.3997 6.92155 26.2234L8.17137 27.0528L9.42119 27.8822C9.75999 27.3717 10.2902 26.8309 11.6759 25.4452L10.6152 24.3845ZM8.15514 35.8754L9.408 35.0506C7.97535 32.8744 7.98054 30.0531 9.42119 27.8822L8.17137 27.0528L6.92155 26.2234C4.81597 29.3962 4.80839 33.5197 6.90227 36.7002L8.15514 35.8754ZM13.6359 41.6219L12.5713 42.6786C13.2091 43.3211 13.6931 43.8224 14.2809 44.1859L15.0699 42.9101L15.8588 41.6343C15.6427 41.5007 15.4387 41.3088 14.7004 40.5651L13.6359 41.6219ZM18.146 43.513L18.1535 42.013C17.1057 42.0078 16.8258 41.9968 16.579 41.9363L16.2221 43.3932L15.8652 44.8502C16.5364 45.0146 17.2332 45.0085 18.1385 45.013L18.146 43.513ZM15.0699 42.9101L14.2809 44.1859C14.771 44.4889 15.3056 44.7131 15.8652 44.8502L16.2221 43.3932L16.5789 41.9363C16.3246 41.874 16.0816 41.7721 15.8588 41.6343L15.0699 42.9101ZM24.4975 41.6288L23.4325 40.5725C22.6839 41.3272 22.477 41.5219 22.2576 41.6568L23.0431 42.9346L23.8286 44.2125C24.4252 43.8457 24.9159 43.337 25.5625 42.6851L24.4975 41.6288ZM19.9215 43.5219L19.914 45.0218C20.8322 45.0264 21.5388 45.0398 22.2202 44.8779L21.8733 43.4185L21.5265 41.9592C21.2759 42.0187 20.9919 42.0272 19.929 42.0219L19.9215 43.5219ZM23.0431 42.9346L22.2576 41.6568C22.0315 41.7957 21.7847 41.8978 21.5265 41.9592L21.8733 43.4185L22.2202 44.8779C22.7882 44.7429 23.3312 44.5183 23.8286 44.2125L23.0431 42.9346ZM37.7782 12.7779L36.7175 13.8386C38.7683 15.8894 39.5471 16.6912 39.9751 17.492L41.298 16.7849L42.6209 16.0778C41.9302 14.7856 40.7353 13.6137 38.8388 11.7173L37.7782 12.7779ZM37.7782 28.3343L38.8388 29.395C40.7353 27.4985 41.9302 26.3266 42.6209 25.0344L41.298 24.3273L39.9751 23.6202C39.5471 24.4211 38.7683 25.2228 36.7175 27.2736L37.7782 28.3343ZM41.298 16.7849L39.9751 17.492C40.9985 19.4066 40.9985 21.7056 39.9751 23.6202L41.298 24.3273L42.6209 25.0344C44.1166 22.2362 44.1166 18.876 42.6209 16.0778L41.298 16.7849ZM36 10.9998L37.0607 9.93911C36.7543 9.63271 36.5641 9.44197 36.39 9.28367L35.381 10.3936L34.3721 11.5036C34.48 11.6017 34.6085 11.7296 34.9394 12.0604L36 10.9998ZM24 10.9998L25.0607 12.0604C25.3915 11.7296 25.52 11.6017 25.6279 11.5036L24.619 10.3936L23.61 9.28367C23.4359 9.44197 23.2457 9.63271 22.9394 9.93911L24 10.9998ZM35.381 10.3936L36.39 9.28367C32.7666 5.99008 27.2334 5.99008 23.61 9.28367L24.619 10.3936L25.6279 11.5036C28.1071 9.2501 31.8929 9.2501 34.3721 11.5036L35.381 10.3936Z" fill="#4C4B67"/>
</svg>
