<svg width="48" height="48" viewBox="0 0 48 48" fill="none" xmlns="http://www.w3.org/2000/svg">
<path d="M13 7H27C30.866 7 34 10.134 34 14M2 20V28.2C2 32.6804 2 34.9206 2.87195 36.6319C3.63893 38.1372 4.86278 39.3611 6.36808 40.1281C8.07937 41 10.3196 41 14.8 41H21.2C25.6804 41 27.9206 41 29.6319 40.1281C31.1372 39.3611 32.3611 38.1372 33.1281 36.6319C34 34.9206 34 32.6804 34 28.2V25.9976C34 24.8957 34 24.3448 34.1374 23.8343C34.2591 23.3819 34.4593 22.9545 34.7289 22.5714C35.0331 22.1391 35.4564 21.7864 36.3028 21.081L38.1271 19.5607C40.6385 17.4679 41.8943 16.4215 42.9548 16.4055C43.8767 16.3916 44.7538 16.8024 45.3334 17.5195C46 18.3445 46 19.9791 46 23.2482V25.1005C46 27.3108 46 28.4159 45.7242 29.0139C45.0686 30.4351 43.4307 31.1136 41.9622 30.5721C41.3443 30.3443 40.5629 29.5629 39 28" stroke="#4C4B67" stroke-width="3" stroke-linecap="round"/>
<path d="M5.34372 7.211C5.48971 6.49672 6.51029 6.49672 6.65628 7.211C6.97872 8.78856 8.21156 10.0214 9.78912 10.3438C10.5034 10.4898 10.5034 11.5104 9.78912 11.6564C8.21156 11.9788 6.97872 13.2117 6.65628 14.7892C6.51029 15.5035 5.48971 15.5035 5.34372 14.7892C5.02128 13.2117 3.78844 11.9788 2.21088 11.6564C1.4966 11.5104 1.4966 10.4898 2.21088 10.3438C3.78844 10.0214 5.02128 8.78856 5.34372 7.211Z" fill="#006FFF"/>
<path d="M17.9407 17.2901C17.9539 17.2256 18.0461 17.2256 18.0593 17.2901C18.7438 20.6391 21.361 23.2562 24.7099 23.9408C24.7745 23.9539 24.7745 24.0461 24.7099 24.0593C21.361 24.7438 18.7438 27.361 18.0593 30.71C18.0461 30.7745 17.9539 30.7745 17.9407 30.71C17.2562 27.361 14.639 24.7438 11.2901 24.0593C11.2255 24.0461 11.2255 23.9539 11.2901 23.9408C14.639 23.2562 17.2562 20.6391 17.9407 17.2901Z" stroke="#006FFF" stroke-width="3"/>
</svg>
