<svg width="48" height="48" viewBox="0 0 48 48" fill="none" xmlns="http://www.w3.org/2000/svg">
<path d="M35.9407 5.29009C35.9539 5.22557 36.0461 5.22557 36.0593 5.29009C36.7438 8.63906 39.361 11.2562 42.7099 11.9408C42.7744 11.9539 42.7744 12.0461 42.7099 12.0593C39.361 12.7438 36.7438 15.361 36.0593 18.71C36.0461 18.7745 35.9539 18.7745 35.9407 18.71C35.2562 15.361 32.639 12.7438 29.29 12.0593C29.2255 12.0461 29.2255 11.9539 29.29 11.9408C32.639 11.2562 35.2562 8.63906 35.9407 5.29009Z" stroke="#006FFF" stroke-width="3"/>
<path d="M7 12H22M7 36H41M36 41V26M12 41V7" stroke="#4C4B67" stroke-width="3" stroke-linecap="round"/>
</svg>
