<svg width="48" height="49" viewBox="0 0 48 49" fill="none" xmlns="http://www.w3.org/2000/svg">
<path d="M18.0625 1.58707C18.271 0.566677 19.729 0.566679 19.9376 1.58708C20.3982 3.84073 22.1594 5.60193 24.413 6.06256C25.4334 6.27112 25.4334 7.72908 24.413 7.93764C22.1594 8.39827 20.3982 10.1595 19.9376 12.4131C19.729 13.4335 18.271 13.4335 18.0625 12.4131C17.6018 10.1595 15.8406 8.39827 13.587 7.93764C12.5666 7.72908 12.5666 6.27112 13.587 6.06256C15.8406 5.60193 17.6018 3.84073 18.0625 1.58707Z" fill="#006FFF"/>
<path d="M17.2464 29.6643L26.9972 43.5899C28.2643 45.3995 30.7585 45.8393 32.5681 44.5722C34.3777 43.3051 34.8175 40.8109 33.5504 39.0013L23.7996 25.0757M17.2464 29.6643L14.3785 25.5686C13.1114 23.7589 13.5512 21.2648 15.3608 19.9976C17.1704 18.7305 19.6646 19.1703 20.9317 20.9799L23.7996 25.0757M17.2464 29.6643L23.7996 25.0757M29.1729 4.0542C35.0007 5.10612 40.0275 8.67337 42.3852 14.127C45.109 20.4274 43.5583 27.5981 39 32.8765M8.39514 12.054C5.18824 16.1691 3.72555 21.2808 4.54933 26.2065" stroke="#4C4B67" stroke-width="3" stroke-linecap="round"/>
</svg>
