<svg width="48" height="48" viewBox="0 0 48 48" fill="none" xmlns="http://www.w3.org/2000/svg">
<path d="M37.9407 30.2901C37.9539 30.2256 38.0461 30.2256 38.0593 30.2901C38.7438 33.6391 41.361 36.2562 44.7099 36.9408C44.7745 36.9539 44.7745 37.0461 44.7099 37.0593C41.361 37.7438 38.7438 40.361 38.0593 43.71C38.0461 43.7745 37.9539 43.7745 37.9407 43.71C37.2562 40.361 34.639 37.7438 31.2901 37.0593C31.2255 37.0461 31.2255 36.9539 31.2901 36.9408C34.639 36.2562 37.2562 33.6391 37.9407 30.2901Z" stroke="#006FFF" stroke-width="3"/>
<path d="M29.636 12.3638L9.12995 32.8699C7.56785 34.432 7.56785 36.9647 9.12995 38.5268C10.692 40.0889 13.2247 40.0889 14.7868 38.5268L35.2929 18.0207M29.636 12.3638L33.1716 8.82831C34.7337 7.26621 37.2663 7.26621 38.8284 8.82831C40.3905 10.3904 40.3905 12.9231 38.8284 14.4852L35.2929 18.0207M29.636 12.3638L35.2929 18.0207" stroke="#4C4B67" stroke-width="3" stroke-linecap="round"/>
<path d="M14.0625 1.58707C14.271 0.566677 15.729 0.566679 15.9375 1.58708C16.3982 3.84073 18.1594 5.60193 20.413 6.06256C21.4334 6.27112 21.4334 7.72908 20.413 7.93764C18.1594 8.39827 16.3982 10.1595 15.9375 12.4131C15.729 13.4335 14.271 13.4335 14.0625 12.4131C13.6018 10.1595 11.8406 8.39827 9.58697 7.93764C8.56657 7.72908 8.56657 6.27112 9.58697 6.06256C11.8406 5.60193 13.6018 3.84073 14.0625 1.58707Z" fill="#006FFF"/>
</svg>
