<svg width="48" height="48" viewBox="0 0 48 48" fill="none" xmlns="http://www.w3.org/2000/svg">
<path d="M24 45.5C24.8284 45.5 25.5 44.8284 25.5 44C25.5 43.1716 24.8284 42.5 24 42.5V44V45.5ZM42.5 24C42.5 24.8284 43.1716 25.5 44 25.5C44.8284 25.5 45.5 24.8284 45.5 24H44H42.5ZM26.7562 14.7819L28.2505 14.9127L26.7562 14.7819ZM28.2706 14.4603L26.9514 15.1743L28.2706 14.4603ZM31.9062 20.0316C32.6799 20.3277 33.5471 19.9406 33.8433 19.1669C34.1394 18.3932 33.7523 17.526 32.9786 17.2298L32.4424 18.6307L31.9062 20.0316ZM24 44V42.5C13.7827 42.5 5.5 34.2173 5.5 24H4H2.5C2.5 35.8741 12.1259 45.5 24 45.5V44ZM4 24H5.5C5.5 13.7827 13.7827 5.5 24 5.5V4V2.5C12.1259 2.5 2.5 12.1259 2.5 24H4ZM24 4V5.5C34.2173 5.5 42.5 13.7827 42.5 24H44H45.5C45.5 12.1259 35.8741 2.5 24 2.5V4ZM25.5065 29.0659L24.0122 28.9352C23.8919 30.3106 22.6793 31.3281 21.3038 31.2078L21.1731 32.7021L21.0424 34.1964C24.0684 34.4611 26.7361 32.2227 27.0008 29.1967L25.5065 29.0659ZM21.1731 32.7021L21.3038 31.2078C19.9284 31.0874 18.9109 29.8749 19.0312 28.4994L17.5369 28.3687L16.0427 28.2379C15.7779 31.2639 18.0164 33.9316 21.0424 34.1964L21.1731 32.7021ZM17.5369 28.3687L19.0312 28.4994C19.1516 27.1239 20.3642 26.1065 21.7396 26.2268L21.8703 24.7325L22.0011 23.2382C18.9751 22.9735 16.3074 25.2119 16.0427 28.2379L17.5369 28.3687ZM21.8703 24.7325L21.7396 26.2268C23.1151 26.3471 24.1325 27.5597 24.0122 28.9352L25.5065 29.0659L27.0008 29.1967C27.2655 26.1706 25.0271 23.503 22.0011 23.2382L21.8703 24.7325ZM25.5065 29.0659L27.0008 29.1967L28.2505 14.9127L26.7562 14.7819L25.2619 14.6512L24.0122 28.9352L25.5065 29.0659ZM28.2706 14.4603L26.9514 15.1743C27.8342 16.8053 29.2449 19.0129 31.9062 20.0316L32.4424 18.6307L32.9786 17.2298C31.3794 16.6177 30.4072 15.2566 29.5898 13.7463L28.2706 14.4603ZM26.7562 14.7819L28.2505 14.9127C28.2422 15.0072 28.1177 15.3478 27.6918 15.4386C27.5048 15.4785 27.3221 15.4483 27.1779 15.3747C27.0332 15.3008 26.9689 15.2066 26.9514 15.1743L28.2706 14.4603L29.5898 13.7463C29.1017 12.8446 28.1247 12.2787 27.0657 12.5047C26.0126 12.7294 25.3506 13.6368 25.2619 14.6512L26.7562 14.7819Z" fill="#4C4B67"/>
<path d="M34.9407 32.2901C34.9539 32.2256 35.0461 32.2256 35.0593 32.2901C35.7438 35.6391 38.361 38.2562 41.7099 38.9408C41.7744 38.9539 41.7744 39.0461 41.7099 39.0593C38.361 39.7438 35.7438 42.361 35.0593 45.71C35.0461 45.7745 34.9539 45.7745 34.9407 45.71C34.2562 42.361 31.639 39.7438 28.29 39.0593C28.2255 39.0461 28.2255 38.9539 28.29 38.9408C31.639 38.2562 34.2562 35.6391 34.9407 32.2901Z" stroke="#006FFF" stroke-width="3"/>
<path d="M43.4375 27.7521C43.5626 27.1399 44.4374 27.1399 44.5626 27.7521C44.8389 29.1043 45.8957 30.1611 47.2478 30.4374C47.8601 30.5626 47.8601 31.4374 47.2478 31.5625C45.8957 31.8389 44.8389 32.8956 44.5626 34.2478C44.4374 34.86 43.5626 34.86 43.4375 34.2478C43.1611 32.8956 42.1044 31.8389 40.7522 31.5625C40.14 31.4374 40.14 30.5626 40.7522 30.4374C42.1044 30.1611 43.1611 29.1043 43.4375 27.7521Z" fill="#006FFF"/>
</svg>
