<svg width="48" height="48" viewBox="0 0 48 48" fill="none" xmlns="http://www.w3.org/2000/svg">
<path d="M10.9375 15.5871C10.729 14.5667 9.271 14.5667 9.06244 15.5871C8.60181 17.8407 6.84061 19.6019 4.58695 20.0626C3.56656 20.2711 3.56656 21.7291 4.58695 21.9376C6.84061 22.3983 8.60181 24.1595 9.06244 26.4131C9.271 27.4335 10.729 27.4335 10.9375 26.4131C11.3982 24.1595 13.1594 22.3983 15.413 21.9376C16.4334 21.7291 16.4334 20.2711 15.413 20.0626C13.1594 19.6019 11.3982 17.8407 10.9375 15.5871Z" fill="#006FFF"/>
<path d="M3.4375 7.75215C3.56264 7.13991 4.43741 7.13991 4.56255 7.75215C4.83893 9.10434 5.89565 10.1611 7.24784 10.4374C7.86008 10.5626 7.86008 11.4374 7.24784 11.5625C5.89565 11.8389 4.83893 12.8956 4.56255 14.2478C4.43741 14.86 3.56264 14.86 3.4375 14.2478C3.16112 12.8956 2.1044 11.8389 0.752208 11.5625C0.13997 11.4374 0.13997 10.5626 0.752209 10.4374C2.1044 10.1611 3.16112 9.10434 3.4375 7.75215Z" fill="#006FFF"/>
<path d="M18.2173 42.3243L18.2932 43.8224L18.2173 42.3243ZM27.9505 41.8308L27.8745 40.3327L27.9505 41.8308ZM37.1605 34.4316L35.714 34.0346L37.1605 34.4316ZM37.542 33.0417L38.9885 33.4387L37.542 33.0417ZM34.9491 23.2462L33.8884 24.3069L34.9491 23.2462ZM26.7179 15.015L27.7785 13.9543L26.7179 15.015ZM16.9224 12.4221L17.3194 13.8686L16.9224 12.4221ZM15.1412 11.3555C14.3423 11.5747 13.8724 12.4001 14.0917 13.199C14.3109 13.9979 15.1363 14.4677 15.9352 14.2485L15.5382 12.802L15.1412 11.3555ZM9.17287 31.1309C9.21482 30.3036 8.57812 29.5988 7.75076 29.5569C6.92339 29.5149 6.21867 30.1516 6.17672 30.979L7.67479 31.055L9.17287 31.1309ZM7.63971 31.7468L6.14163 31.6708L7.63971 31.7468ZM23.559 12.2972L24.2376 10.9595L24.2376 10.9595L23.559 12.2972ZM21.0121 11.623L20.94 13.1213H20.94L21.0121 11.623ZM38.341 28.9519L36.8428 29.0241V29.0241L38.341 28.9519ZM37.6668 26.405L39.0046 25.7265L39.0046 25.7265L37.6668 26.405ZM32.967 41.1365L33.5873 42.5022V42.5022L32.967 41.1365ZM35.4015 39.1806L36.6015 40.0807L36.6015 40.0807L35.4015 39.1806ZM10.9739 41.9145L10.3202 43.2645H10.3202L10.9739 41.9145ZM8.04959 38.9901L6.69956 39.6439H6.69956L8.04959 38.9901ZM9.72633 38.1163C9.14054 38.702 9.14054 39.6518 9.72633 40.2376C10.3121 40.8234 11.2619 40.8234 11.8476 40.2376L10.787 39.1769L9.72633 38.1163ZM21.4997 30.5856C22.0854 29.9998 22.0854 29.05 21.4997 28.4643C20.9139 27.8785 19.9641 27.8785 19.3783 28.4643L20.439 29.5249L21.4997 30.5856ZM36.7732 25.0702L35.7125 26.1309L36.5977 27.0161L37.627 26.3035L36.7732 25.0702ZM24.8938 13.1908L23.6605 12.337L22.9479 13.3663L23.8331 14.2515L24.8938 13.1908ZM43.9555 16.7188L45.405 16.3329L43.9555 16.7188ZM39.8049 22.9713L38.9511 21.7381L39.8049 22.9713ZM43.6967 19.5886L42.3396 18.9496V18.9496L43.6967 19.5886ZM33.2452 6.00857L33.6311 4.55907L33.2452 6.00857ZM26.9927 10.1591L28.226 11.0129L26.9927 10.1591ZM30.3755 6.26734L31.0144 7.62443L30.3755 6.26734ZM18.2173 42.3243L18.2932 43.8224L28.0264 43.3289L27.9505 41.8308L27.8745 40.3327L18.1413 40.8263L18.2173 42.3243ZM37.1605 34.4316L38.607 34.8286L38.9885 33.4387L37.542 33.0417L36.0955 32.6447L35.714 34.0346L37.1605 34.4316ZM34.9491 23.2462L36.0097 22.1855L27.7785 13.9543L26.7179 15.015L25.6572 16.0756L33.8884 24.3069L34.9491 23.2462ZM16.9224 12.4221L16.5254 10.9756L15.1412 11.3555L15.5382 12.802L15.9352 14.2485L17.3194 13.8686L16.9224 12.4221ZM7.67479 31.055L6.17672 30.979L6.14163 31.6708L7.63971 31.7468L9.13779 31.8228L9.17287 31.1309L7.67479 31.055ZM26.7179 15.015L27.7785 13.9543C26.3415 12.5172 25.3965 11.5473 24.2376 10.9595L23.559 12.2972L22.8805 13.635C23.5118 13.9552 24.076 14.4944 25.6572 16.0756L26.7179 15.015ZM16.9224 12.4221L17.3194 13.8686C19.4758 13.2767 20.2328 13.0873 20.94 13.1213L21.0121 11.623L21.0843 10.1248C19.7863 10.0623 18.4852 10.4377 16.5254 10.9756L16.9224 12.4221ZM23.559 12.2972L24.2376 10.9595C23.257 10.4621 22.1825 10.1777 21.0843 10.1248L21.0121 11.623L20.94 13.1213C21.6158 13.1538 22.2771 13.3289 22.8805 13.635L23.559 12.2972ZM37.542 33.0417L38.9885 33.4387C39.5264 31.4788 39.9018 30.1777 39.8393 28.8798L38.341 28.9519L36.8428 29.0241C36.8768 29.7312 36.6873 30.4882 36.0955 32.6447L37.542 33.0417ZM34.9491 23.2462L33.8884 24.3069C35.4696 25.8881 36.0088 26.4522 36.3291 27.0836L37.6668 26.405L39.0046 25.7265C38.4168 24.5676 37.4468 23.6226 36.0097 22.1855L34.9491 23.2462ZM38.341 28.9519L39.8393 28.8798C39.7864 27.7816 39.5019 26.707 39.0046 25.7265L37.6668 26.405L36.3291 27.0836C36.6352 27.687 36.8102 28.3483 36.8428 29.0241L38.341 28.9519ZM27.9505 41.8308L28.0264 43.3289C30.5156 43.2026 32.1745 43.1439 33.5873 42.5022L32.967 41.1365L32.3467 39.7707C31.5789 40.1195 30.6203 40.1935 27.8745 40.3327L27.9505 41.8308ZM37.1605 34.4316L35.714 34.0346C34.9864 36.6858 34.7075 37.606 34.2015 38.2806L35.4015 39.1806L36.6015 40.0807C37.5325 38.8393 37.9474 37.2321 38.607 34.8286L37.1605 34.4316ZM32.967 41.1365L33.5873 42.5022C34.7793 41.9608 35.8159 41.128 36.6015 40.0807L35.4015 39.1806L34.2015 38.2806C33.7181 38.9251 33.0802 39.4376 32.3467 39.7707L32.967 41.1365ZM18.2173 42.3243L18.1413 40.8263C16.1852 40.9255 14.812 40.9938 13.7437 40.9575C12.6912 40.9217 12.0842 40.7855 11.6277 40.5644L10.9739 41.9145L10.3202 43.2645C11.3164 43.7469 12.4009 43.9136 13.6418 43.9558C14.8669 43.9974 16.389 43.919 18.2932 43.8224L18.2173 42.3243ZM7.63971 31.7468L6.14163 31.6708C6.04507 33.5751 5.96663 35.0972 6.00829 36.3223C6.0505 37.5631 6.21713 38.6476 6.69956 39.6439L8.04959 38.9901L9.39963 38.3363C9.17855 37.8798 9.04236 37.2728 9.00656 36.2203C8.97023 35.1521 9.03859 33.7789 9.13779 31.8228L7.63971 31.7468ZM10.9739 41.9145L11.6277 40.5644C10.6555 40.0936 9.87045 39.3086 9.39963 38.3363L8.04959 38.9901L6.69956 39.6439C7.46464 41.2238 8.74028 42.4994 10.3202 43.2645L10.9739 41.9145ZM10.787 39.1769L11.8476 40.2376L21.4997 30.5856L20.439 29.5249L19.3783 28.4643L9.72633 38.1163L10.787 39.1769ZM37.2697 9.23255L36.209 10.2932C36.7929 10.8771 37.3664 11.4506 37.9399 12.0241C38.5134 12.5976 39.0869 13.1711 39.6708 13.755L40.7315 12.6943L41.7921 11.6337C41.2083 11.0498 40.6347 10.4763 40.0612 9.90279C39.4877 9.32928 38.9142 8.75578 38.3303 8.17189L37.2697 9.23255ZM39.8049 22.9713L38.9511 21.7381L35.9194 23.8369L36.7732 25.0702L37.627 26.3035L40.6587 24.2046L39.8049 22.9713ZM36.7732 25.0702L37.8339 24.0096L25.9545 12.1302L24.8938 13.1908L23.8331 14.2515L35.7125 26.1309L36.7732 25.0702ZM24.8938 13.1908L26.1271 14.0447L28.226 11.0129L26.9927 10.1591L25.7594 9.3053L23.6605 12.337L24.8938 13.1908ZM40.7315 12.6943L39.6708 13.755C40.6676 14.7518 41.3459 15.432 41.8194 15.9956C42.2841 16.5489 42.4427 16.8671 42.506 17.1048L43.9555 16.7188L45.405 16.3329C45.1778 15.4796 44.7022 14.7634 44.1165 14.0661C43.5395 13.3792 42.751 12.5925 41.7921 11.6337L40.7315 12.6943ZM39.8049 22.9713L40.6587 24.2046C41.7736 23.4328 42.6901 22.7999 43.3806 22.2273C44.0816 21.646 44.6776 21.0264 45.0538 20.2276L43.6967 19.5886L42.3396 18.9496C42.2348 19.1721 42.0219 19.4568 41.4657 19.918C40.8991 20.3879 40.1101 20.9357 38.9511 21.7381L39.8049 22.9713ZM43.9555 16.7188L42.506 17.1048C42.6698 17.7201 42.6109 18.3735 42.3396 18.9496L43.6967 19.5886L45.0538 20.2276C45.6264 19.0114 45.7508 17.6319 45.405 16.3329L43.9555 16.7188ZM37.2697 9.23255L38.3303 8.17189C37.3715 7.21305 36.5849 6.42452 35.8979 5.84753C35.2006 5.26181 34.4844 4.78625 33.6311 4.55907L33.2452 6.00857L32.8593 7.45808C33.0969 7.52136 33.4151 7.67995 33.9684 8.14468C34.5321 8.61815 35.2122 9.29638 36.209 10.2932L37.2697 9.23255ZM26.9927 10.1591L28.226 11.0129C29.0284 9.8539 29.5762 9.06497 30.046 8.49833C30.5072 7.94215 30.7919 7.72921 31.0144 7.62443L30.3755 6.26734L29.7365 4.91024C28.9376 5.2864 28.318 5.8824 27.7367 6.5834C27.1641 7.27394 26.5312 8.19044 25.7594 9.3053L26.9927 10.1591ZM33.2452 6.00857L33.6311 4.55907C32.3321 4.21322 30.9527 4.3376 29.7365 4.91024L30.3755 6.26734L31.0144 7.62443C31.5905 7.35318 32.244 7.29426 32.8593 7.45808L33.2452 6.00857Z" fill="#4C4B67"/>
</svg>
