<svg width="48" height="48" viewBox="0 0 48 48" fill="none" xmlns="http://www.w3.org/2000/svg">
<path d="M37.9408 28.2901C37.9539 28.2256 38.0461 28.2256 38.0593 28.2901C38.7438 31.6391 41.361 34.2562 44.71 34.9408C44.7745 34.9539 44.7745 35.0461 44.71 35.0593C41.361 35.7438 38.7438 38.361 38.0593 41.71C38.0461 41.7745 37.9539 41.7745 37.9408 41.71C37.2562 38.361 34.6391 35.7438 31.2901 35.0593C31.2256 35.0461 31.2256 34.9539 31.2901 34.9408C34.6391 34.2562 37.2562 31.6391 37.9408 28.2901Z" stroke="#006FFF" stroke-width="3"/>
<path d="M24.6362 8.04457C23.8325 8.24549 23.3439 9.05989 23.5448 9.86359C23.7457 10.6673 24.5601 11.1559 25.3638 10.955L25 9.49978L24.6362 8.04457ZM21.3631 42.4446L21.6721 40.9768H21.6721L21.3631 42.4446ZM12.6223 40.6045L12.9313 39.1367L12.6223 40.6045ZM41.5 23.9998C41.5 24.8282 42.1716 25.4998 43 25.4998C43.8284 25.4998 44.5 24.8282 44.5 23.9998H43H41.5ZM29.059 43.4676C29.8697 43.2969 30.3885 42.5014 30.2178 41.6908C30.0472 40.8801 29.2516 40.3613 28.441 40.532L28.75 41.9998L29.059 43.4676ZM26.6369 42.4446L26.3279 40.9768H26.3279L26.6369 42.4446ZM23.3368 42.7969L23.4611 41.302L23.4611 41.302L23.3368 42.7969ZM24.6632 42.7969L24.5389 41.302L24.5389 41.302L24.6632 42.7969ZM5.49486 36.5175L4.11858 37.114H4.11858L5.49486 36.5175ZM7.53097 39.0269L6.66371 40.2508H6.66371L7.53097 39.0269ZM38.7717 6.95199L38.3288 8.3851V8.3851L38.7717 6.95199ZM42.1316 9.5753L43.4145 8.79802V8.79802L42.1316 9.5753ZM5.00316 13.1999L6.50237 13.2485L5.00316 13.1999ZM12.191 9.04655C13.0016 9.21722 13.7972 8.6984 13.9678 7.88775C14.1385 7.07709 13.6197 6.28157 12.809 6.1109L12.5 7.57873L12.191 9.04655ZM12.045 7.48617L11.7838 8.96324L12.045 7.48617ZM23.5 16.1805C23.5 17.0089 24.1716 17.6805 25 17.6805C25.8284 17.6805 26.5 17.0089 26.5 16.1805H25H23.5ZM22.3558 7.31213L23.1948 6.06869L22.3558 7.31213ZM19.2372 5.20802L18.3983 6.45146L19.2372 5.20802ZM14.8697 35.865L15.2248 34.4076L15.2248 34.4076L14.8697 35.865ZM15.4533 36.0071L15.0982 37.4645H15.0982L15.4533 36.0071ZM22.2297 43.5742C22.547 44.3395 23.4246 44.7027 24.1898 44.3854C24.9551 44.0682 25.3183 43.1906 25.001 42.4253L23.6154 42.9998L22.2297 43.5742ZM5 31.2104H6.5V13.6642H5H3.5V31.2104H5ZM25 9.49978L25.3638 10.955L31.4355 9.43708L31.0717 7.98187L30.7079 6.52665L24.6362 8.04457L25 9.49978ZM21.3631 42.4446L21.6721 40.9768L12.9313 39.1367L12.6223 40.6045L12.3133 42.0723L21.0541 43.9125L21.3631 42.4446ZM43 17.2952H41.5V23.9998H43H44.5V17.2952H43ZM28.75 41.9998L28.441 40.532L26.3279 40.9768L26.6369 42.4446L26.9459 43.9125L29.059 43.4676L28.75 41.9998ZM21.3631 42.4446L21.054 43.9125C22.0037 44.1124 22.6011 44.2409 23.2124 44.2917L23.3368 42.7969L23.4611 41.302C23.0787 41.2702 22.6915 41.1914 21.6721 40.9768L21.3631 42.4446ZM26.6369 42.4446L26.3279 40.9768C25.3085 41.1914 24.9213 41.2702 24.5389 41.302L24.6632 42.7969L24.7876 44.2917C25.3989 44.2409 25.9963 44.1124 26.946 43.9125L26.6369 42.4446ZM23.3368 42.7969L23.2124 44.2917C23.7366 44.3353 24.2634 44.3353 24.7876 44.2917L24.6632 42.7969L24.5389 41.302C24.1802 41.3319 23.8198 41.3319 23.4611 41.302L23.3368 42.7969ZM5 31.2104H3.5C3.5 32.5769 3.49905 33.6827 3.56594 34.5877C3.63422 35.5116 3.77837 36.3291 4.11858 37.114L5.49486 36.5175L6.87115 35.921C6.71649 35.5642 6.61321 35.1166 6.55778 34.3666C6.50095 33.5977 6.5 32.6208 6.5 31.2104H5ZM12.6223 40.6045L12.9313 39.1367C11.5512 38.8461 10.5954 38.6439 9.85473 38.4299C9.13219 38.2211 8.71552 38.0279 8.39823 37.803L7.53097 39.0269L6.66371 40.2508C7.36171 40.7454 8.13203 41.0549 9.022 41.312C9.89378 41.5639 10.9761 41.7908 12.3133 42.0723L12.6223 40.6045ZM5.49486 36.5175L4.11858 37.114C4.66412 38.3727 5.54443 39.4576 6.66371 40.2508L7.53097 39.0269L8.39823 37.803C7.72666 37.3272 7.19847 36.6762 6.87115 35.921L5.49486 36.5175ZM31.0717 7.98187L31.4355 9.43708C33.4951 8.92216 34.9444 8.56127 36.0801 8.38179C37.2048 8.20406 37.848 8.23652 38.3288 8.3851L38.7717 6.95199L39.2146 5.51887C38.0943 5.1726 36.9205 5.21176 35.6119 5.41856C34.3143 5.62361 32.7141 6.02509 30.7079 6.52665L31.0717 7.98187ZM43 17.2952H44.5C44.5 15.2272 44.5014 13.5774 44.3856 12.2689C44.2689 10.9492 44.0222 9.80095 43.4145 8.79802L42.1316 9.5753L40.8487 10.3526C41.1094 10.7829 41.2969 11.3991 41.3973 12.5333C41.4986 13.6786 41.5 15.1722 41.5 17.2952H43ZM38.7717 6.95199L38.3288 8.3851C39.3813 8.71038 40.2779 9.41043 40.8487 10.3526L42.1316 9.5753L43.4145 8.79802C42.4631 7.22776 40.9688 6.06101 39.2146 5.51887L38.7717 6.95199ZM5 13.6642H6.5C6.5 13.4068 6.50021 13.3152 6.50237 13.2485L5.00316 13.1999L3.50394 13.1513C3.49979 13.2792 3.5 13.4322 3.5 13.6642H5ZM12.5 7.57873L12.809 6.1109C12.582 6.06311 12.4323 6.03138 12.3063 6.0091L12.045 7.48617L11.7838 8.96324C11.8494 8.97485 11.9391 8.99353 12.191 9.04655L12.5 7.57873ZM5.00316 13.1999L6.50237 13.2485C6.59121 10.5102 9.08584 8.48605 11.7838 8.96324L12.045 7.48617L12.3063 6.0091C7.80974 5.21377 3.65201 8.58733 3.50394 13.1513L5.00316 13.1999ZM25 16.1805H26.5V12.2859H25H23.5V16.1805H25ZM22.3558 7.31213L23.1948 6.06869L20.0762 3.96457L19.2372 5.20802L18.3983 6.45146L21.5169 8.55558L22.3558 7.31213ZM13 8.52387H11.5V33.485H13H14.5V8.52387H13ZM14.8697 35.865L14.5146 37.3223L15.0982 37.4645L15.4533 36.0071L15.8084 34.5498L15.2248 34.4076L14.8697 35.865ZM15.4533 36.0071L15.0982 37.4645C18.3134 38.2479 20.9624 40.5173 22.2297 43.5742L23.6154 42.9998L25.001 42.4253C23.3674 38.4849 19.9528 35.5595 15.8084 34.5498L15.4533 36.0071ZM13 33.485H11.5C11.5 35.3062 12.7452 36.8912 14.5146 37.3223L14.8697 35.865L15.2248 34.4076C14.7994 34.3039 14.5 33.9229 14.5 33.485H13ZM19.2372 5.20802L20.0762 3.96457C16.4232 1.49993 11.5 4.11724 11.5 8.52387H13H14.5C14.5 6.52086 16.7378 5.33117 18.3983 6.45146L19.2372 5.20802ZM25 12.2859H26.5C26.5 9.79299 25.2613 7.46299 23.1948 6.06869L22.3558 7.31213L21.5169 8.55558C22.7568 9.39216 23.5 10.7902 23.5 12.2859H25Z" fill="#4C4B67"/>
</svg>
