<svg width="48" height="48" viewBox="0 0 48 48" fill="none" xmlns="http://www.w3.org/2000/svg">
<path d="M31.9407 5.29009C31.9539 5.22557 32.0461 5.22557 32.0593 5.29009C32.7438 8.63906 35.361 11.2562 38.7099 11.9408C38.7745 11.9539 38.7745 12.0461 38.7099 12.0593C35.361 12.7438 32.7438 15.361 32.0593 18.71C32.0461 18.7745 31.9539 18.7745 31.9407 18.71C31.2562 15.361 28.639 12.7438 25.2901 12.0593C25.2255 12.0461 25.2255 11.9539 25.2901 11.9408C28.639 11.2562 31.2562 8.63906 31.9407 5.29009Z" stroke="#006FFF" stroke-width="3"/>
<path d="M24.4375 19.7521C24.5626 19.1399 25.4374 19.1399 25.5625 19.7521C25.8389 21.1043 26.8956 22.1611 28.2478 22.4374C28.8601 22.5626 28.8601 23.4374 28.2478 23.5625C26.8956 23.8389 25.8389 24.8956 25.5625 26.2478C25.4374 26.86 24.5626 26.86 24.4375 26.2478C24.1611 24.8956 23.1044 23.8389 21.7522 23.5625C21.1399 23.4374 21.1399 22.5626 21.7522 22.4374C23.1044 22.1611 24.1611 21.1043 24.4375 19.7521Z" fill="#006FFF"/>
<path d="M10.0901 10.0902C13.3774 6.80288 17.6509 5.09694 21.9569 4.97264C22.7849 4.94888 23.4756 5.60029 23.4995 6.42829C23.5233 7.25613 22.871 7.9462 22.0432 7.97025C18.4722 8.07339 14.936 9.4869 12.2114 12.2115C6.54888 17.8741 6.54887 27.055 12.2114 32.7176C17.874 38.3801 27.0549 38.3801 32.7175 32.7176C35.6558 29.7792 37.0699 25.8959 36.9587 22.0433C36.9349 21.2154 37.5865 20.5247 38.4144 20.5007C39.2422 20.4769 39.9329 21.1285 39.957 21.9563C40.0776 26.1321 38.7086 30.3463 35.8532 33.732L41.9099 39.7887C42.4956 40.3744 42.4956 41.3242 41.9099 41.91C41.3241 42.4957 40.3743 42.4957 39.7885 41.91L33.7319 35.8533C26.8562 41.6528 16.5676 41.315 10.0908 34.8382C3.25667 28.0041 3.25599 16.9243 10.0901 10.0902Z" fill="#4C4B67"/>
</svg>
