<svg width="48" height="48" viewBox="0 0 48 48" fill="none" xmlns="http://www.w3.org/2000/svg">
<path d="M35.6194 37.0243C40.693 34.1223 44 29.3701 44 24C44 15.1634 35.0457 8 24 8C23.325 8 22.6578 8.02675 22 8.079M35.6194 37.0243C32.3443 38.8976 28.3331 40 24 40C15 40 18 30 25.5 30C31.7332 30 34.9777 33.3335 35.6194 37.0243ZM35.6194 37.0243C36.316 41.0311 33.945 45.459 29 46.5M12 36.8012C7.14221 33.8821 4 29.2346 4 24C4 22.2539 4.34963 20.5731 4.99595 19" stroke="#4C4B67" stroke-width="3" stroke-linecap="round"/>
<path d="M15.9407 8.29009C15.9539 8.22557 16.0461 8.22557 16.0593 8.29009C16.7438 11.6391 19.361 14.2562 22.7099 14.9408C22.7745 14.9539 22.7745 15.0461 22.7099 15.0593C19.361 15.7438 16.7438 18.361 16.0593 21.71C16.0461 21.7745 15.9539 21.7745 15.9407 21.71C15.2562 18.361 12.639 15.7438 9.29005 15.0593C9.22553 15.0461 9.22553 14.9539 9.29005 14.9408C12.639 14.2562 15.2562 11.6391 15.9407 8.29009Z" stroke="#006FFF" stroke-width="3"/>
<path d="M5.15621 1.12822C5.34392 0.209864 6.65608 0.209864 6.84379 1.12822C7.25835 3.15651 8.84344 4.74159 10.8717 5.15616C11.7901 5.34387 11.7901 6.65603 10.8717 6.84373C8.84344 7.2583 7.25835 8.84339 6.84379 10.8717C6.65608 11.79 5.34392 11.79 5.15621 10.8717C4.74165 8.84339 3.15656 7.2583 1.12827 6.84373C0.209917 6.65603 0.209917 5.34387 1.12827 5.15616C3.15656 4.74159 4.74165 3.15651 5.15621 1.12822Z" fill="#006FFF"/>
</svg>
