<svg width="48" height="48" viewBox="0 0 48 48" fill="none" xmlns="http://www.w3.org/2000/svg">
<path d="M37.9407 29.2901C37.9539 29.2256 38.0461 29.2256 38.0593 29.2901C38.7438 32.6391 41.361 35.2562 44.7099 35.9408C44.7744 35.9539 44.7744 36.0461 44.7099 36.0593C41.361 36.7438 38.7438 39.361 38.0593 42.71C38.0461 42.7745 37.9539 42.7745 37.9407 42.71C37.2562 39.361 34.639 36.7438 31.29 36.0593C31.2255 36.0461 31.2255 35.9539 31.29 35.9408C34.639 35.2562 37.2562 32.6391 37.9407 29.2901Z" stroke="#006FFF" stroke-width="3"/>
<path d="M28.3437 23.211C28.4897 22.4967 29.5103 22.4967 29.6563 23.211C29.9787 24.7886 31.2116 26.0214 32.7891 26.3438C33.5034 26.4898 33.5034 27.5104 32.7891 27.6564C31.2116 27.9788 29.9787 29.2117 29.6563 30.7892C29.5103 31.5035 28.4897 31.5035 28.3437 30.7892C28.0213 29.2117 26.7884 27.9788 25.2109 27.6564C24.4966 27.5104 24.4966 26.4898 25.2109 26.3438C26.7884 26.0214 28.0213 24.7886 28.3437 23.211Z" fill="#006FFF"/>
<path d="M41.5 24C41.5 24.8284 42.1716 25.5 43 25.5C43.8284 25.5 44.5 24.8284 44.5 24H43H41.5ZM27.5 44.5C28.3284 44.5 29 43.8284 29 43C29 42.1716 28.3284 41.5 27.5 41.5V43V44.5ZM5.87195 38.6319L7.20846 37.9509H7.20846L5.87195 38.6319ZM9.36808 42.1281L10.0491 40.7915L9.36808 42.1281ZM38.6319 5.87195L37.9509 7.20846V7.20846L38.6319 5.87195ZM42.1281 9.36808L40.7915 10.0491L42.1281 9.36808ZM9.36808 5.87195L8.68709 4.53544L8.68709 4.53544L9.36808 5.87195ZM5.87195 9.36808L4.53544 8.68709L4.53544 8.68709L5.87195 9.36808ZM18.5 5C18.5 4.17157 17.8284 3.5 17 3.5C16.1716 3.5 15.5 4.17157 15.5 5H17H18.5ZM15.5 43C15.5 43.8284 16.1716 44.5 17 44.5C17.8284 44.5 18.5 43.8284 18.5 43H17H15.5ZM43 19.5C43.8284 19.5 44.5 18.8284 44.5 18C44.5 17.1716 43.8284 16.5 43 16.5V18V19.5ZM34.5 5C34.5 4.17157 33.8284 3.5 33 3.5C32.1716 3.5 31.5 4.17157 31.5 5H33H34.5ZM5 16.5C4.17157 16.5 3.5 17.1716 3.5 18C3.5 18.8284 4.17157 19.5 5 19.5V18V16.5ZM16 19.5C16.8284 19.5 17.5 18.8284 17.5 18C17.5 17.1716 16.8284 16.5 16 16.5V18V19.5ZM5 28.5C4.17157 28.5 3.5 29.1716 3.5 30C3.5 30.8284 4.17157 31.5 5 31.5V30V28.5ZM16 31.5C16.8284 31.5 17.5 30.8284 17.5 30C17.5 29.1716 16.8284 28.5 16 28.5V30V31.5ZM17.8 5V6.5H30.2V5V3.5H17.8V5ZM5 30.2H6.5V17.8H5H3.5V30.2H5ZM43 17.8H41.5V24H43H44.5V17.8H43ZM27.5 43V41.5H17.8V43V44.5H27.5V43ZM5 30.2H3.5C3.5 32.4155 3.49883 34.1673 3.61398 35.5765C3.73055 37.0033 3.97376 38.2106 4.53544 39.3129L5.87195 38.6319L7.20846 37.9509C6.89818 37.342 6.70543 36.5735 6.60401 35.3322C6.50117 34.0735 6.5 32.465 6.5 30.2H5ZM17.8 43V41.5C15.535 41.5 13.9265 41.4988 12.6678 41.396C11.4265 41.2946 10.658 41.1018 10.0491 40.7915L9.36808 42.1281L8.68709 43.4646C9.78944 44.0262 10.9967 44.2695 12.4235 44.386C13.8327 44.5012 15.5845 44.5 17.8 44.5V43ZM5.87195 38.6319L4.53544 39.3129C5.44624 41.1005 6.89955 42.5538 8.68709 43.4646L9.36808 42.1281L10.0491 40.7915C8.82601 40.1684 7.83163 39.174 7.20846 37.9509L5.87195 38.6319ZM30.2 5V6.5C32.465 6.5 34.0735 6.50117 35.3322 6.60401C36.5735 6.70543 37.342 6.89818 37.9509 7.20846L38.6319 5.87195L39.3129 4.53544C38.2106 3.97376 37.0033 3.73055 35.5765 3.61398C34.1673 3.49883 32.4155 3.5 30.2 3.5V5ZM43 17.8H44.5C44.5 15.5845 44.5012 13.8327 44.386 12.4235C44.2695 10.9967 44.0262 9.78944 43.4646 8.68709L42.1281 9.36808L40.7915 10.0491C41.1018 10.658 41.2946 11.4265 41.396 12.6678C41.4988 13.9265 41.5 15.535 41.5 17.8H43ZM38.6319 5.87195L37.9509 7.20846C39.174 7.83163 40.1684 8.82601 40.7915 10.0491L42.1281 9.36808L43.4646 8.68709C42.5538 6.89955 41.1005 5.44624 39.3129 4.53544L38.6319 5.87195ZM17.8 5V3.5C15.5845 3.5 13.8327 3.49883 12.4235 3.61398C10.9967 3.73055 9.78944 3.97376 8.68709 4.53544L9.36808 5.87195L10.0491 7.20846C10.658 6.89818 11.4265 6.70543 12.6678 6.60401C13.9265 6.50117 15.535 6.5 17.8 6.5V5ZM5 17.8H6.5C6.5 15.535 6.50117 13.9265 6.60401 12.6678C6.70543 11.4265 6.89818 10.658 7.20846 10.0491L5.87195 9.36808L4.53544 8.68709C3.97376 9.78944 3.73055 10.9967 3.61398 12.4235C3.49883 13.8327 3.5 15.5845 3.5 17.8H5ZM9.36808 5.87195L8.68709 4.53544C6.89955 5.44624 5.44624 6.89955 4.53544 8.68709L5.87195 9.36808L7.20846 10.0491C7.83163 8.82601 8.82601 7.83163 10.0491 7.20846L9.36808 5.87195ZM17 5H15.5V43H17H18.5V5H17ZM37 18V19.5H43V18V16.5H37V18ZM33 14H34.5V5H33H31.5V14H33ZM37 18V16.5C35.6193 16.5 34.5 15.3807 34.5 14H33H31.5C31.5 17.0376 33.9624 19.5 37 19.5V18ZM5 18V19.5H16V18V16.5H5V18ZM5 30V31.5H16V30V28.5H5V30Z" fill="#4C4B67"/>
</svg>
