<svg width="48" height="48" viewBox="0 0 48 48" fill="none" xmlns="http://www.w3.org/2000/svg">
<path d="M36.9407 29.2901C36.9539 29.2255 37.0461 29.2255 37.0593 29.2901V29.2901C37.7438 32.639 40.361 35.2562 43.7099 35.9407V35.9407C43.7745 35.9539 43.7745 36.0461 43.7099 36.0593V36.0593C40.361 36.7438 37.7438 39.361 37.0593 42.7099V42.7099C37.0461 42.7745 36.9539 42.7745 36.9407 42.7099V42.7099C36.2562 39.361 33.639 36.7438 30.2901 36.0593V36.0593C30.2255 36.0461 30.2255 35.9539 30.2901 35.9407V35.9407C33.639 35.2562 36.2562 32.639 36.9407 29.2901V29.2901Z" stroke="#006FFF" stroke-width="3"/>
<path d="M6 18.9998V17.4998H4.5V18.9998H6ZM42.5 25.9998C42.5 26.8282 43.1716 27.4998 44 27.4998C44.8284 27.4998 45.5 26.8282 45.5 25.9998H44H42.5ZM25.5 43.4998C26.3284 43.4998 27 42.8282 27 41.9998C27 41.1714 26.3284 40.4998 25.5 40.4998V41.9998V43.4998ZM6.87195 37.6317L5.53544 38.3127L6.87195 37.6317ZM10.3681 41.1279L11.0491 39.7914L10.3681 41.1279ZM41.816 19.4358L42.497 18.0993H42.4969L41.816 19.4358ZM43.564 21.1839L42.2275 21.8648V21.8648L43.564 21.1839ZM32.5527 5.04089C32.7526 4.23694 32.2629 3.42317 31.4589 3.22328C30.655 3.0234 29.8412 3.51308 29.6413 4.31703L31.097 4.67896L32.5527 5.04089ZM27.2649 13.8749C27.065 14.6788 27.5547 15.4926 28.3587 15.6925C29.1626 15.8924 29.9764 15.4027 30.1763 14.5988L28.7206 14.2368L27.2649 13.8749ZM20.735 7.12467C20.9349 6.32072 20.4452 5.50695 19.6412 5.30706C18.8373 5.10717 18.0235 5.59686 17.8236 6.40081L19.2793 6.76274L20.735 7.12467ZM15.4472 15.9587C15.2473 16.7626 15.737 17.5764 16.541 17.7763C17.3449 17.9762 18.1587 17.4865 18.3586 16.6825L16.9029 16.3206L15.4472 15.9587ZM6.06975 18.2309L4.59254 18.4914L4.85301 19.9686L6.33022 19.7081L6.06975 18.2309ZM40.538 12.1532L40.2775 10.676L40.538 12.1532ZM36.0208 3.81091L36.2812 5.28812L36.0208 3.81091ZM13.3702 7.80481L13.1097 6.3276L13.3702 7.80481ZM8.23385 9.17426L7.4279 7.90917L8.23385 9.17426ZM5.59987 12.936L7.06432 13.2606L5.59987 12.936ZM6 18.9998V20.4998H37.6V18.9998V17.4998H6V18.9998ZM6 29.1998H7.5V18.9998H6H4.5V29.1998H6ZM44 25.3998H42.5V25.9998H44H45.5V25.3998H44ZM25.5 41.9998V40.4998H18.8V41.9998V43.4998H25.5V41.9998ZM6 29.1998H4.5C4.5 31.4153 4.49883 33.1671 4.61398 34.5763C4.73055 36.0031 4.97376 37.2104 5.53544 38.3127L6.87195 37.6317L8.20846 36.9508C7.89818 36.3418 7.70543 35.5733 7.60401 34.3321C7.50117 33.0733 7.5 31.4648 7.5 29.1998H6ZM18.8 41.9998V40.4998C16.535 40.4998 14.9265 40.4986 13.6678 40.3958C12.4265 40.2944 11.658 40.1016 11.0491 39.7914L10.3681 41.1279L9.68709 42.4644C10.7894 43.0261 11.9967 43.2693 13.4235 43.3858C14.8327 43.501 16.5845 43.4998 18.8 43.4998V41.9998ZM6.87195 37.6317L5.53544 38.3127C6.44624 40.1003 7.89955 41.5536 9.68709 42.4644L10.3681 41.1279L11.0491 39.7914C9.82601 39.1682 8.83163 38.1738 8.20846 36.9508L6.87195 37.6317ZM37.6 18.9998V20.4998C38.7449 20.4998 39.5133 20.501 40.105 20.5493C40.6793 20.5963 40.9539 20.68 41.135 20.7723L41.816 19.4358L42.4969 18.0993C41.8224 17.7556 41.1091 17.6214 40.3493 17.5593C39.6071 17.4987 38.6954 17.4998 37.6 17.4998V18.9998ZM44 25.3998H45.5C45.5 24.3045 45.5012 23.3927 45.4405 22.6505C45.3784 21.8907 45.2442 21.1774 44.9005 20.5029L43.564 21.1839L42.2275 21.8648C42.3198 22.046 42.4036 22.3205 42.4505 22.8948C42.4988 23.4865 42.5 24.255 42.5 25.3998H44ZM41.816 19.4358L41.135 20.7723C41.6054 21.012 41.9878 21.3944 42.2275 21.8648L43.564 21.1839L44.9005 20.5029C44.3732 19.468 43.5318 18.6266 42.497 18.0993L41.816 19.4358ZM31.097 4.67896L29.6413 4.31703L27.2649 13.8749L28.7206 14.2368L30.1763 14.5988L32.5527 5.04089L31.097 4.67896ZM19.2793 6.76274L17.8236 6.40081L15.4472 15.9587L16.9029 16.3206L18.3586 16.6825L20.735 7.12467L19.2793 6.76274ZM13.3702 7.80481L13.6307 9.28203L36.2812 5.28812L36.0208 3.81091L35.7603 2.3337L13.1097 6.3276L13.3702 7.80481ZM40.538 12.1532L40.2775 10.676L5.80927 16.7537L6.06975 18.2309L6.33022 19.7081L40.7985 13.6304L40.538 12.1532ZM42.9715 8.67786L41.4943 8.93834C41.6381 9.75418 41.0934 10.5322 40.2775 10.676L40.538 12.1532L40.7985 13.6304C43.246 13.1989 44.8803 10.8649 44.4487 8.41739L42.9715 8.67786ZM36.0208 3.81091L36.2812 5.28812C38.7288 4.85655 41.0627 6.49081 41.4943 8.93834L42.9715 8.67786L44.4487 8.41739C43.7294 4.33818 39.8395 1.61442 35.7603 2.3337L36.0208 3.81091ZM13.3702 7.80481L13.1097 6.3276C11.7533 6.56677 10.6619 6.75839 9.78661 6.97506C8.89819 7.19497 8.12584 7.46453 7.4279 7.90917L8.23385 9.17426L9.0398 10.4393C9.34842 10.2427 9.76765 10.0703 10.5075 9.88717C11.2604 9.7008 12.2339 9.52832 13.6307 9.28203L13.3702 7.80481ZM6.06975 18.2309L7.54696 17.9704C7.30066 16.5736 7.12979 15.5999 7.04741 14.8286C6.96646 14.0708 6.98511 13.6179 7.06432 13.2606L5.59987 12.936L4.13543 12.6113C3.95632 13.4192 3.96717 14.2372 4.06438 15.1473C4.16015 16.0439 4.35337 17.135 4.59254 18.4914L6.06975 18.2309ZM8.23385 9.17426L7.4279 7.90917C5.75029 8.97792 4.56595 10.6693 4.13543 12.6113L5.59987 12.936L7.06432 13.2606C7.32263 12.0954 8.03323 11.0806 9.0398 10.4393L8.23385 9.17426Z" fill="#4C4B67"/>
</svg>
