<svg width="48" height="48" viewBox="0 0 48 48" fill="none" xmlns="http://www.w3.org/2000/svg">
<path d="M13.0625 18.5869C13.271 17.5665 14.729 17.5665 14.9376 18.5869C15.3982 20.8406 17.1594 22.6018 19.413 23.0624C20.4334 23.271 20.4334 24.7289 19.413 24.9375C17.1594 25.3981 15.3982 27.1593 14.9376 29.413C14.729 30.4334 13.271 30.4334 13.0625 29.413C12.6018 27.1593 10.8406 25.3981 8.58699 24.9375C7.56659 24.7289 7.56659 23.271 8.58699 23.0624C10.8406 22.6018 12.6018 20.8406 13.0625 18.5869Z" fill="#006FFF"/>
<path d="M7.43749 11.7521C7.56263 11.1399 8.43741 11.1399 8.56254 11.7521C8.83892 13.1043 9.89564 14.1611 11.2478 14.4374C11.8601 14.5626 11.8601 15.4374 11.2478 15.5625C9.89564 15.8389 8.83892 16.8956 8.56254 18.2478C8.43741 18.86 7.56263 18.86 7.43749 18.2478C7.16112 16.8956 6.10439 15.8389 4.7522 15.5625C4.13996 15.4374 4.13996 14.5626 4.7522 14.4374C6.10439 14.1611 7.16112 13.1043 7.43749 11.7521Z" fill="#006FFF"/>
<path d="M26 7L26.0001 41M18 15L18.0001 17M18 31L18.0001 33M34 15L34.0001 33M42 22L42.0001 26" stroke="#4C4B67" stroke-width="3" stroke-linecap="round"/>
</svg>
